<svg width="180" height="180" viewBox="0 0 180 180" fill="none" xmlns="http://www.w3.org/2000/svg">
<style>
  @media (prefers-color-scheme: dark) {
    .letters { fill: #fff }
    .circle { fill: black }
  }
</style>
<g clip-path="url(#clip0_880_1929)">
<circle cx="90" cy="90" r="90" fill="white" class="circle" />
<path class="letters" d="M68.9688 113H60.0312V77.1562H46.5625V68.1875H82.4062V77.1562H68.9688V113ZM131.125 113H122.188V81C122.188 80.375 122.062 79.7917 121.812 79.25C121.583 78.7083 121.26 78.2396 120.844 77.8438C120.448 77.4271 119.979 77.1042 119.438 76.875C118.896 76.6458 118.312 76.5312 117.688 76.5312C117.062 76.5312 116.479 76.6458 115.938 76.875C115.396 77.1042 114.917 77.4271 114.5 77.8438C114.104 78.2396 113.792 78.7083 113.562 79.25C113.333 79.7917 113.219 80.375 113.219 81V113H104.25V81C104.25 80.375 104.135 79.7917 103.906 79.25C103.677 78.7083 103.354 78.2396 102.938 77.8438C102.542 77.4271 102.073 77.1042 101.531 76.875C100.99 76.6458 100.406 76.5312 99.7812 76.5312C99.1562 76.5312 98.5729 76.6458 98.0312 76.875C97.4896 77.1042 97.0104 77.4271 96.5938 77.8438C96.1979 78.2396 95.8854 78.7083 95.6562 79.25C95.4271 79.7917 95.3125 80.375 95.3125 81V113H86.3438V81C86.3438 79.1458 86.6875 77.4062 87.375 75.7812C88.0833 74.1354 89.0417 72.7083 90.25 71.5C91.4792 70.2708 92.9062 69.3125 94.5312 68.625C96.1771 67.9167 97.9271 67.5625 99.7812 67.5625C101.448 67.5625 103.052 67.8646 104.594 68.4688C106.135 69.0521 107.521 69.9062 108.75 71.0312C109.979 69.9062 111.354 69.0521 112.875 68.4688C114.417 67.8646 116.021 67.5625 117.688 67.5625C119.542 67.5625 121.281 67.9167 122.906 68.625C124.552 69.3125 125.979 70.2708 127.188 71.5C128.417 72.7083 129.375 74.1354 130.062 75.7812C130.771 77.4062 131.125 79.1458 131.125 81V113Z" fill="black"/>
</g>
<defs>
<clipPath id="clip0_880_1929">
<rect width="180" height="180" fill="white" class="circle" />
</clipPath>
</defs>
</svg>
